:SAMPLES-PER-SECOND 24
:FULLY-SPECIFIED
:DEGREES
554
root  -1.97506 40.2081 31.1687 10.8618 -51.9692 -6.883
RightUpLeg  -7.27626 -3.2404 -10.9801
RightLeg  26.1246 -7.49609 -4.207
RightFoot  2.11361 -1.01038 8.6724
RightToes  -2.08645e-008 3.77894e-005 6.81332e-007
Spine  -1.16045 3.64737 0.41619
Spine1  1.02617 2.69242 4.91208
HEad  -2.8749 34.5561 6.75793
LeftShoulder1  3.85383 -8.74837 -25.3037
LeftArm  -42.4787 -13.9745 -5.1276
LeftForeArm  173.8 -52.7417 -167.068
LeftHand  1.17315 9.5774 31.5465
RightShoulder  2.18304 4.42067 21.2667
RightArm  -14.4289 39.1742 37.4664
RightForeArm  -178.571 63.7866 161.159
RightHand  -2.10913 1.95926 -32.6955
LeftUpLeg  -13.2757 -0.507234 6.54959
LeftLeg  14.7884 12.3249 4.34024
LeftFoot  -2.80235 0.485041 -6.2697
LeftToes  1.24767e-006 1.47042e-008 1.32732e-009
555
root  -2.08388 40.0778 30.7421 10.3108 -50.9916 -6.42743
RightUpLeg  -6.24248 -1.30265 -10.5846
RightLeg  27.7241 -8.46496 -5.0221
RightFoot  0.879 -0.945032 8.8836
RightToes  -2.08645e-008 3.77894e-005 6.81332e-007
Spine  -1.2019 3.1944 0.572477
Spine1  2.11831 2.17016 5.01912
HEad  -6.86482 34.4623 3.74582
LeftShoulder1  4.72048 -10.0434 -28.8156
LeftArm  -32.5482 -2.96747 -9.66852
LeftForeArm  171.87 -56.457 -165.075
LeftHand  0.92499 8.77196 30.8575
RightShoulder  2.44028 4.83379 23.0974
RightArm  -9.72119 30.143 35.861
RightForeArm  178.222 63.9115 160.74
RightHand  -2.07608 2.20993 -31.2078
LeftUpLeg  -14.3133 -1.91881 7.17251
LeftLeg  16.3 12.5667 4.61524
LeftFoot  -2.93702 0.534903 -7.03709
LeftToes  1.24767e-006 1.47042e-008 1.32732e-009
556
root  -2.24198 39.8507 30.2241 9.56372 -50.4808 -5.45172
RightUpLeg  -4.94731 0.738144 -10.3994
RightLeg  26.6515 -9.29123 -5.25701
RightFoot  -2.37435 -0.951611 11.9883
RightToes  -2.08645e-008 3.77894e-005 6.81332e-007
Spine  -1.35009 3.13728 0.684351
Spine1  3.01032 2.17372 4.57095
HEad  -10.5423 34.0659 1.20053
LeftShoulder1  5.36161 -10.8608 -31.3317
LeftArm  -24.0506 7.81637 -15.1348
LeftForeArm  171.692 -62.4712 -161.163
LeftHand  0.404959 6.95929 29.0275
RightShoulder  2.77676 5.30075 25.4857
RightArm  -4.94009 18.614 33.6311
RightForeArm  175.601 64.6182 159.881
RightHand  -2.11638 2.70364 -29.9453
LeftUpLeg  -15.6621 -3.10035 7.53349
LeftLeg  18.1418 13.0474 5.06769
LeftFoot  -3.43827 0.555045 -7.73291
LeftToes  1.24767e-006 1.47042e-008 1.32732e-009
557
root  -2.4273 39.5659 29.5691 8.71802 -50.8015 -4.01462
RightUpLeg  -4.32689 1.89796 -10.4531
RightLeg  25.1512 -10.0485 -5.32428
RightFoot  -6.32965 -0.698203 14.9661
RightToes  -2.08645e-008 3.77894e-005 6.81332e-007
Spine  -1.33828 3.39559 0.90165
Spine1  3.80811 2.68593 3.18743
HEad  -14.5783 33.8185 -1.54611
LeftShoulder1  5.9361 -11.5039 -33.5529
LeftArm  -19.1005 19.0545 -19.8211
LeftForeArm  171.999 -67.2843 -156.911
LeftHand  -0.096568 4.9655 26.307
RightShoulder  3.25132 5.86447 28.7646
RightArm  -1.59425 5.97885 31.233
RightForeArm  175.341 65.825 158.763
RightHand  -2.21007 3.64632 -28.1135
LeftUpLeg  -17.2747 -3.56266 7.66855
LeftLeg  20.0584 13.4839 5.70971
LeftFoot  -3.88814 0.597594 -8.81023
LeftToes  1.24767e-006 1.47042e-008 1.32732e-009
558
root  -2.59229 39.31 28.7988 8.14648 -51.6448 -2.90173
RightUpLeg  -4.41194 1.76099 -10.3108
RightLeg  24.2561 -10.0848 -5.14649
RightFoot  -9.72846 -0.276855 14.8699
RightToes  -2.08645e-008 3.77894e-005 6.81332e-007
Spine  -0.855592 3.51242 1.98473
Spine1  4.73536 3.25655 0.900656
HEad  -19.6809 34.1172 -5.08631
LeftShoulder1  6.46397 -12.0194 -35.6113
LeftArm  -17.8042 31.1043 -24.4783
LeftForeArm  173.874 -67.8694 -156.506
LeftHand  -0.228312 4.32544 24.4694
RightShoulder  3.74961 6.38474 32.033
RightArm  0.427559 -6.31403 30.3709
RightForeArm  176.088 67.1701 157.51
RightHand  -2.22361 4.69523 -25.4724
LeftUpLeg  -18.7211 -3.68548 8.15639
LeftLeg  21.5832 14.1243 6.39451
LeftFoot  -3.84558 0.675571 -9.94478
LeftToes  1.24767e-006 1.47042e-008 1.32732e-009
559
root  -2.71926 39.146 27.9296 7.97729 -52.3301 -2.42993
RightUpLeg  -4.94079 1.44138 -9.69051
RightLeg  23.7667 -9.1314 -4.59076
RightFoot  -12.3989 0.0394043 13.3134
RightToes  -2.08645e-008 3.77894e-005 6.81332e-007
Spine  0.0596349 3.55081 3.57422
Spine1  5.6879 3.78487 -1.29138
HEad  -24.9459 34.0827 -8.88329
LeftShoulder1  6.64346 -12.1302 -36.4443
LeftArm  -20.2832 41.4153 -32.6017
LeftForeArm  174.624 -67.1816 -157.341
LeftHand  -0.290912 3.99234 23.7986
RightShoulder  4.10583 6.70317 34.3371
RightArm  0.96058 -18.0664 31.4259
RightForeArm  175.848 67.8858 156.713
RightHand  -2.1427 5.38488 -23.076
LeftUpLeg  -19.7172 -3.96213 9.23878
LeftLeg  22.077 14.9235 6.8756
LeftFoot  -3.05269 0.824245 -11.0922
LeftToes  1.24767e-006 1.47042e-008 1.32732e-009
560
root  -2.83132 39.11 26.9828 7.87109 -52.3719 -2.0791
RightUpLeg  -5.73109 1.06078 -8.7147
RightLeg  23.683 -8.60159 -4.32585
RightFoot  -14.0055 0.183763 11.9498
RightToes  -2.08645e-008 3.77894e-005 6.81332e-007
Spine  1.01798 3.71394 4.69554
Spine1  6.32279 4.27715 -2.52757
HEad  -28.1469 33.071 -11.6826
LeftShoulder1  6.57915 -12.0189 -36.3375
LeftArm  -25.0532 47.5386 -42.0898
LeftForeArm  171.403 -67.9033 -156.168
LeftHand  -0.400698 3.4215 23.3492
RightShoulder  4.32407 6.86534 35.7885
RightArm  -0.460678 -28.5426 33.3441
RightForeArm  174.157 68.1333 156.235
RightHand  -2.03561 5.5404 -21.6679
LeftUpLeg  -20.0573 -4.46368 10.5733
LeftLeg  20.6495 15.5732 6.67075
LeftFoot  -1.19201 1.09453 -12.2021
LeftToes  1.24767e-006 1.47042e-008 1.32732e-009
561
root  -2.9517 39.1875 26.005 7.49634 -51.5234 -1.34052
RightUpLeg  -6.25917 0.293643 -7.59946
RightLeg  23.3079 -9.36588 -4.61107
RightFoot  -14.6868 0.200889 10.2773
RightToes  -2.08645e-008 3.77894e-005 6.81332e-007
Spine  1.57428 3.58197 4.88062
Spine1  6.63852 4.23353 -2.7863
HEad  -28.8814 32.2228 -13.1148
LeftShoulder1  6.56253 -12.0162 -36.2407
LeftArm  -27.0368 50.0687 -46.6946
LeftForeArm  167.787 -68.5396 -154.992
LeftHand  -0.446779 3.14156 22.8114
RightShoulder  4.44325 6.9613 36.5273
RightArm  -2.19305 -35.8892 35.1493
RightForeArm  171.01 68.8041 155.058
RightHand  -1.92363 5.43113 -20.7159
LeftUpLeg  -19.7485 -3.66482 11.3444
LeftLeg  17.0713 14.4428 5.4588
LeftFoot  1.83143 1.44229 -12.559
LeftToes  1.24767e-006 1.47042e-008 1.32732e-009
562
root  -3.06291 39.3114 25.0419 6.7876 -49.9002 -0.173279
RightUpLeg  -6.23504 -0.321419 -6.63326
RightLeg  22.0508 -10.9396 -5.04572
RightFoot  -15.003 0.17289 8.58366
RightToes  -2.08645e-008 3.77894e-005 6.81332e-007
Spine  1.86683 2.86174 4.07426
Spine1  6.73088 3.36408 -2.24441
HEad  -29.0716 32.4054 -14.0838
LeftShoulder1  6.58802 -12.0735 -36.2482
LeftArm  -23.9026 49.8762 -45.1104
LeftForeArm  168.869 -68.2735 -155.442
LeftHand  -0.504032 2.73679 21.8505
RightShoulder  4.42248 6.97134 36.2939
RightArm  -1.44907 -39.2162 35.7149
RightForeArm  167.742 69.813 153.337
RightHand  -1.86311 5.46171 -20.0334
LeftUpLeg  -19.1609 0.297639 10.9066
LeftLeg  12.288 9.33028 3.69176
LeftFoot  5.49589 1.89876 -13.0118
LeftToes  1.24767e-006 1.47042e-008 1.32732e-009
563
root  -3.11095 39.4244 24.159 6.00513 -48.0842 1.08163
RightUpLeg  -6.04271 -0.64768 -6.01391
RightLeg  20.4698 -12.6993 -5.39351
RightFoot  -15.1486 0.142747 7.37906
RightToes  -2.08645e-008 3.77894e-005 6.81332e-007
Spine  2.30759 1.98919 2.95751
Spine1  6.37869 2.24039 -1.38553
HEad  -29.5539 32.8076 -15.211
LeftShoulder1  6.67557 -12.2018 -36.4536
LeftArm  -17.9204 46.6354 -40.0485
LeftForeArm  172.292 -68.4669 -155.629
LeftHand  -0.579023 2.17411 20.7561
RightShoulder  4.26808 6.87343 35.2252
RightArm  1.78467 -39.0658 34.3964
RightForeArm  166.528 70.5065 152.196
RightHand  -1.87737 5.74939 -19.6825
LeftUpLeg  -18.6656 3.86348 10.6159
LeftLeg  7.6555 3.78201 1.86087
LeftFoot  9.27168 2.71458 -15.1515
LeftToes  1.24767e-006 1.47042e-008 1.32732e-009
564
root  -3.0471 39.5039 23.4215 5.57178 -46.6182 1.93069
RightUpLeg  -6.11098 -1.02807 -5.55055
RightLeg  19.1605 -14.1185 -5.60853
RightFoot  -15.128 0.0983948 6.07563
RightToes  -2.08645e-008 3.77894e-005 6.81332e-007
Spine  2.82285 1.31264 2.80891
Spine1  5.60382 1.48947 -1.26327
HEad  -29.5962 32.7736 -16.1167
LeftShoulder1  6.8984 -12.4881 -37.0663
LeftArm  -11.9316 40.4059 -34.1259
LeftForeArm  172.712 -69.4904 -154.413
LeftHand  -0.615885 1.93338 20.5619
RightShoulder  4.06159 6.70926 33.8801
RightArm  5.49293 -36.2975 32.268
RightForeArm  166.643 71.1439 151.248
RightHand  -1.90003 6.12717 -19.2875
LeftUpLeg  -18.4116 5.07461 10.9513
LeftLeg  4.34727 0.602604 0.780285
LeftFoot  12.327 3.69739 -17.8853
LeftToes  1.24767e-006 1.47042e-008 1.32732e-009
565
root  -2.87304 39.5496 22.8299 5.37915 -45.7357 2.35275
RightUpLeg  -6.52067 -1.07544 -5.13115
RightLeg  18.4313 -15.1331 -5.82781
RightFoot  -15.0021 0.051279 4.78505
RightToes  -2.08645e-008 3.77894e-005 6.81332e-007
Spine  3.28828 0.78853 3.74638
Spine1  4.82931 1.16856 -2.25997
HEad  -29.2001 32.6596 -16.3776
LeftShoulder1  7.1231 -12.7761 -37.6619
LeftArm  -7.72358 32.3603 -29.4325
LeftForeArm  171.41 -70.4114 -153
LeftHand  -0.62486 1.91754 20.7697
RightShoulder  3.89569 6.59038 32.7087
RightArm  8.53354 -31.9831 30.9536
RightForeArm  165.449 72.1617 149.395
RightHand  -1.82081 6.19835 -18.4016
LeftUpLeg  -18.4096 5.25449 11.2977
LeftLeg  3.67356 0.304403 0.766024
LeftFoot  12.9412 4.0491 -19.0501
LeftToes  1.24767e-006 1.47042e-008 1.32732e-009
566
root  -2.63084 39.5816 22.3801 5.05737 -45.6189 2.60303
RightUpLeg  -7.11276 -0.571715 -4.94857
RightLeg  18.4023 -15.8156 -6.0991
RightFoot  -14.7287 0.0226069 4.13967
RightToes  -2.08645e-008 3.77894e-005 6.81332e-007
Spine  3.7389 0.502407 4.60829
Spine1  4.35909 1.10422 -3.1834
HEad  -29.2313 32.7431 -16.4791
LeftShoulder1  7.19055 -12.8966 -37.7483
LeftArm  -5.73297 24.1845 -27.3916
LeftForeArm  171.515 -70.9533 -152.225
LeftHand  -0.629483 1.85962 20.5855
RightShoulder  3.80208 6.57135 31.8487
RightArm  10.574 -27.5818 30.7756
RightForeArm  163.178 73.075 147.363
RightHand  -1.62217 6.07323 -16.6277
LeftUpLeg  -18.0105 5.38827 11.6299
LeftLeg  5.06185 2.78277 1.19623
LeftFoot  11.3454 3.64873 -18.4018
LeftToes  1.24767e-006 1.47042e-008 1.32732e-009
